<svg width="92" height="29" viewBox="0 0 92 29" fill="none" xmlns="http://www.w3.org/2000/svg">
<path fill-rule="evenodd" clip-rule="evenodd" d="M0 27.9972L1.96674 26.7246V2.39095L0.192818 1.54255V1.07979L5.05183 0V26.7246L6.98001 27.9972V28.4214H0V27.9972ZM65.712 26.7246L63.7453 27.9972V28.4214H70.7253V27.9972L68.7971 26.7246V0L63.9381 1.07979V1.54255L65.712 2.39095V26.7246ZM30.4262 9.40986C34.9767 9.40986 37.2134 13.6904 37.2134 18.4337C37.2134 23.1771 34.9767 27.4191 30.4262 27.4576C25.8757 27.4576 23.639 23.1771 23.639 18.4337C23.639 13.6904 25.8757 9.40986 30.4262 9.40986ZM30.4262 7.86731C24.4103 7.86731 20.014 12.3793 20.014 18.4337C20.014 24.4882 24.4103 29.0002 30.4262 29.0002C36.4421 29.0002 40.8384 24.4882 40.8384 18.4337C40.8384 12.3793 36.4421 7.86731 30.4262 7.86731ZM9.9876 16.7749L18.6258 26.7243L20.7854 27.9584V28.4211H16.1192C15.2708 27.6113 6.67111 17.5848 6.67111 17.5848L14.3453 9.98772L12.6871 8.90793V8.44518H18.9344V8.90793L16.6977 9.98772L9.9876 16.7749ZM56.4956 20.6319V17.7396C48.9757 18.4337 46.6619 20.092 46.6619 23.4085C46.6619 25.9151 48.3973 27.3805 50.5568 27.3805C54.1047 27.3419 56.4956 24.6039 56.4956 20.6319ZM43.384 23.3313C43.384 18.9351 48.0502 16.8141 56.4956 16.3127V13.9989C56.4956 10.8753 54.6446 9.40986 52.0994 9.40986C49.8627 9.40986 48.1273 10.6825 47.5489 12.8035C47.2403 13.9989 46.5462 14.5774 45.7749 14.5774C44.9651 14.5774 44.3481 13.8832 44.3481 12.9963C44.3481 12.4949 44.4252 12.1479 44.8108 11.4537C45.8521 9.44841 48.8986 7.86731 52.0994 7.86731C56.1871 7.86731 59.6193 9.17847 59.6193 14.9245V26.6864L61.586 27.959V28.4217H56.8041V24.9124C55.493 27.4576 53.2177 28.9616 50.1326 28.9616C46.6233 29.0002 43.384 27.2648 43.384 23.3313ZM85.9584 17.7396V20.6319C85.9584 24.6039 83.606 27.3419 80.0196 27.3805C77.86 27.3805 76.1247 25.9151 76.1247 23.4085C76.1247 20.092 78.4385 18.4337 85.9584 17.7396ZM85.997 16.3127C77.5515 16.8141 72.8853 18.9351 72.8853 23.3313C72.8853 27.2648 76.0861 29.0002 79.634 28.9616C82.719 28.9616 84.9943 27.4576 86.3055 24.9124V28.4217H91.0873V27.959L89.1206 26.6864V14.9245C89.1206 9.17847 85.6884 7.86731 81.6007 7.86731C78.3999 7.86731 75.3534 9.44841 74.3122 11.4537C73.9265 12.1479 73.8494 12.4949 73.8494 12.9963C73.8494 13.8832 74.4664 14.5774 75.2763 14.5774C76.0475 14.5774 76.7417 13.9989 77.0502 12.8035C77.6286 10.6825 79.364 9.40986 81.6007 9.40986C84.1459 9.40986 85.997 10.8753 85.997 13.9989V16.3127Z" fill="black"/>
</svg>
